<svg xmlns="http://www.w3.org/2000/svg" xmlns:xlink="http://www.w3.org/1999/xlink" width="2001" height="1243" viewBox="0 0 2001 1243">
  <defs>
    <clipPath id="clip-custom_13">
      <rect width="2001" height="1243"/>
    </clipPath>
  </defs>
  <g id="custom_13" data-name="custom –13" clip-path="url(#clip-custom_13)">
    <rect width="2001" height="1243" fill="#fff"/>
    <g id="Group_166" data-name="Group 166" transform="translate(215 -129)">
      <path id="Path_261" data-name="Path 261" d="M259.212,518.421c142.767,0,259.209-116.442,259.209-259.212S401.979,0,259.212,0,0,116.443,0,259.21,116.444,518.421,259.212,518.421Z" transform="translate(525.681 491)" fill="#e0bffc"/>
      <g id="Group_156" data-name="Group 156" transform="translate(470.595 491)">
        <g id="Group_155" data-name="Group 155" transform="translate(195.679 0)">
          <path id="Path_245" data-name="Path 245" d="M250.081,185.552V44.458a9.369,9.369,0,0,0-2.769-6.678,9.276,9.276,0,0,0-6.591-2.731H240.7c-21.951.052-61.876,5.136-82.654,38.6a9.016,9.016,0,0,0-1.293,4.765V226.066c25.314-26.491,62.008-31.055,83.91-31.108A9.441,9.441,0,0,0,250.081,185.552Z" transform="translate(-36.259 -35.048)" fill="#39cee2"/>
          <path id="Path_246" data-name="Path 246" d="M273.2,71.8h-6.823V189.766a24.073,24.073,0,0,1-23.994,24.015c-18.577.044-49.209,3.677-70.9,24.209,37.519-9.186,77.072-3.215,99.613,1.922a9.408,9.408,0,0,0,11.514-9.168V81.209A9.418,9.418,0,0,0,273.2,71.8Z" transform="translate(-44.589 -39.262)" fill="#39cee2"/>
          <path id="Path_247" data-name="Path 247" d="M243.643,178.65V44.026a9.053,9.053,0,0,0-2.578-6.372,8.532,8.532,0,0,0-6.137-2.606h-.021c-20.436.05-57.608,4.9-76.952,36.825a8.765,8.765,0,0,0-1.2,4.546V217.305c23.568-25.276,57.731-29.631,78.122-29.681A8.9,8.9,0,0,0,243.643,178.65Z" transform="translate(-33.221 -31.673)" fill="#8d3aee"/>
          <path id="Path_248" data-name="Path 248" d="M239.273,173.863V43.727a8.834,8.834,0,0,0-2.449-6.16A8.034,8.034,0,0,0,231,35.048h-.02c-19.409.048-54.711,4.737-73.082,35.6a8.589,8.589,0,0,0-1.143,4.395V211.23c22.382-24.433,54.827-28.643,74.193-28.692A8.533,8.533,0,0,0,239.273,173.863Z" transform="translate(-31.045 -29.479)" fill="#39cee2"/>
          <path id="Path_249" data-name="Path 249" d="M237.248,171.869V43.6a8.756,8.756,0,0,0-2.389-6.071,7.8,7.8,0,0,0-5.685-2.483h-.02c-18.932.047-53.368,4.669-71.289,35.086a8.535,8.535,0,0,0-1.115,4.332V208.7c21.833-24.082,53.482-28.232,72.372-28.279A8.371,8.371,0,0,0,237.248,171.869Z" transform="translate(-31.045 -29.479)" fill="#8d3aee"/>
          <path id="Path_250" data-name="Path 250" d="M237.4,169.475V43.452a8.513,8.513,0,0,0-2.393-5.965,7.886,7.886,0,0,0-5.7-2.44h-.02c-18.968.047-53.468,4.587-71.423,34.472a8.259,8.259,0,0,0-1.117,4.256v133.91c21.874-23.661,53.583-29.763,72.508-29.81A8.3,8.3,0,0,0,237.4,169.475Z" transform="translate(-33.221 -29.479)" fill="#39cee2"/>
          <path id="Path_251" data-name="Path 251" d="M234.868,167.9V43.354a8.5,8.5,0,0,0-2.318-5.895,7.566,7.566,0,0,0-5.517-2.411h-.019c-18.372.046-51.79,4.533-69.181,34.068a8.291,8.291,0,0,0-1.082,4.206V205.661c21.188-23.383,51.9-29.414,70.232-29.46A8.126,8.126,0,0,0,234.868,167.9Z" transform="translate(-33.221 -29.479)" fill="#8d3aee"/>
          <path id="Path_252" data-name="Path 252" d="M232.843,166.322V43.255a8.47,8.47,0,0,0-2.258-5.825,7.321,7.321,0,0,0-5.374-2.382h-.019c-17.9.046-50.448,4.48-67.387,33.664a8.285,8.285,0,0,0-1.054,4.156V203.636c20.638-23.106,50.555-29.065,68.412-29.11A7.979,7.979,0,0,0,232.843,166.322Z" transform="translate(-33.221 -29.479)" fill="#39cee2"/>
          <path id="Path_253" data-name="Path 253" d="M156.751,185.552V44.458a9.39,9.39,0,0,1,9.361-9.41h.023c21.951.052,61.876,5.136,82.654,38.6a9.016,9.016,0,0,1,1.293,4.765V226.066c-25.314-26.491-62.008-31.055-83.91-31.108A9.441,9.441,0,0,1,156.751,185.552Z" transform="translate(-132.553 -35.048)" fill="#39cee2"/>
          <path id="Path_254" data-name="Path 254" d="M180.89,71.8h6.823V189.766a24.073,24.073,0,0,0,23.994,24.015c18.577.044,49.209,3.677,70.9,24.209-37.519-9.186-77.072-3.215-99.613,1.922a9.408,9.408,0,0,1-11.514-9.168V81.209A9.418,9.418,0,0,1,180.89,71.8Z" transform="translate(-171.482 -39.262)" fill="#39cee2"/>
          <path id="Path_255" data-name="Path 255" d="M156.751,178.65V44.026a9.053,9.053,0,0,1,2.578-6.372,8.532,8.532,0,0,1,6.137-2.606h.021c20.436.05,57.608,4.9,76.952,36.825a8.765,8.765,0,0,1,1.2,4.546V217.306c-23.568-25.276-57.731-29.631-78.122-29.681A8.9,8.9,0,0,1,156.751,178.65Z" transform="translate(-129.153 -31.673)" fill="#8d3aee"/>
          <path id="Path_256" data-name="Path 256" d="M156.751,173.863V43.727a8.834,8.834,0,0,1,2.449-6.16,8.034,8.034,0,0,1,5.828-2.519h.02c19.409.048,54.711,4.737,73.082,35.6a8.589,8.589,0,0,1,1.143,4.395V211.23c-22.383-24.433-54.828-28.643-74.193-28.692A8.533,8.533,0,0,1,156.751,173.863Z" transform="translate(-126.959 -29.479)" fill="#39cee2"/>
          <path id="Path_257" data-name="Path 257" d="M156.751,171.869V43.6a8.756,8.756,0,0,1,2.389-6.071,7.8,7.8,0,0,1,5.685-2.483h.02c18.932.047,53.368,4.669,71.289,35.086a8.534,8.534,0,0,1,1.115,4.332V208.7c-21.833-24.082-53.482-28.232-72.372-28.279A8.371,8.371,0,0,1,156.751,171.869Z" transform="translate(-124.934 -29.479)" fill="#8d3aee"/>
          <path id="Path_258" data-name="Path 258" d="M156.751,169.475V43.452a8.513,8.513,0,0,1,2.393-5.965,7.886,7.886,0,0,1,5.7-2.44h.02c18.968.047,53.469,4.587,71.423,34.472a8.259,8.259,0,0,1,1.117,4.256v133.91c-21.874-23.661-53.583-29.763-72.508-29.81A8.3,8.3,0,0,1,156.751,169.475Z" transform="translate(-122.909 -29.479)" fill="#39cee2"/>
          <path id="Path_259" data-name="Path 259" d="M156.751,167.9V43.354a8.5,8.5,0,0,1,2.318-5.895,7.566,7.566,0,0,1,5.517-2.411h.019c18.373.046,51.79,4.533,69.181,34.068a8.291,8.291,0,0,1,1.082,4.206V205.661c-21.188-23.383-51.9-29.414-70.233-29.46A8.126,8.126,0,0,1,156.751,167.9Z" transform="translate(-120.378 -29.479)" fill="#8d3aee"/>
          <path id="Path_260" data-name="Path 260" d="M156.751,166.322V43.255a8.47,8.47,0,0,1,2.258-5.825,7.321,7.321,0,0,1,5.374-2.382h.019c17.9.046,50.448,4.48,67.387,33.664a8.285,8.285,0,0,1,1.054,4.156V203.636c-20.638-23.106-50.555-29.065-68.412-29.11A7.979,7.979,0,0,1,156.751,166.322Z" transform="translate(-118.353 -29.479)" fill="#39cee2"/>
        </g>
        <path id="Path_224" data-name="Path 224" d="M335.74,57.476C319.051,80.113,297.213,97,274.2,111.991c-18.682,12.161-39.965,9.566-59.787,1.631-12.141-4.852-24.15-5.441-35.82-1.9-15.568,4.7-31.218,5.208-47.1,5.255-6.808.027-12.466-2.358-16.519-7.7-2.264-2.988,16.282-15.413,32.193-15.413-2.954-5.894-54.376,6.588-61.232,6.081l-38.9,4.977c-13.826,1.123-13.806,6.348-27.4-1.34a3.231,3.231,0,0,0-1.7-.23c-7.566.43-11.836-1.969-16.046-6.981-2.43-2.886-2.23-6.439-.937-9.806,1.367-3.533,4.839-2.616,7.684-3.739,17.4-6.889,23.009-10.259,46.6-16.086C72,62.6,88.356,57.54,105.112,53.754c6.923-1.577,13.971-2.748,20.218-6.256,13.271-7.478,27.381-9.738,42.544-9.055,17.206.785,34.463.091,51.713.2,30.271.139,53.256-11.982,68.818-38.639l57.816,43.567C324.971,68.421,355.159,31.086,335.74,57.476Z" transform="matrix(-0.799, 0.602, -0.602, -0.799, 629.405, 180.46)" fill="#fcefca"/>
        <path id="Path_224-2" data-name="Path 224" d="M335.74,62.871C319.051,40.234,297.213,23.349,274.2,8.356,255.515-3.805,234.232-1.21,214.41,6.725c-12.141,4.852-24.15,5.441-35.82,1.9-15.568-4.7-31.218-5.208-47.1-5.255-6.808-.027-12.466,2.358-16.519,7.7-2.264,2.988,16.282,15.413,32.193,15.413C144.2,32.373,92.782,19.891,85.927,20.4l-38.9-4.977C33.2,14.3,33.218,9.073,19.619,16.761a3.23,3.23,0,0,1-1.7.23c-7.566-.43-11.836,1.969-16.046,6.981-2.43,2.886-2.23,6.439-.937,9.806,1.367,3.533,4.839,2.616,7.684,3.739,17.4,6.889,23.009,10.259,46.6,16.086,16.776,4.145,33.13,9.2,49.886,12.99,6.923,1.577,13.971,2.748,20.218,6.256,13.271,7.478,27.381,9.738,42.544,9.055,17.206-.785,34.463-.091,51.713-.2,30.271-.139,53.256,11.982,68.818,38.639L346.221,76.78C324.971,51.926,355.159,89.261,335.74,62.871Z" transform="matrix(0.799, 0.602, -0.602, 0.799, 72.427, 84.346)" fill="#fcefca"/>
      </g>
      <g id="Group_165" data-name="Group 165" transform="translate(538.856 715.784)">
        <path id="Path_273" data-name="Path 273" d="M.011,451.79h518.4V430.34H.011Z" transform="translate(-0.011 -202.174)" fill="#807d7d"/>
        <path id="Path_284" data-name="Path 284" d="M41.008,459.305H476.385v-7.778H41.008Z" transform="translate(0.503 -201.908)" fill="#666"/>
        <path id="Path_291" data-name="Path 291" d="M312.815,352.871H453.254v4.739c-6.649,8.475-5.551,17.9,0,24.964v4.737H312.815C290.876,387.311,290.875,352.871,312.815,352.871Z" transform="translate(-3.382 -203.146)" fill="#20d0c2"/>
        <path id="Path_292" data-name="Path 292" d="M453.2,382.515c-5.668-8.32-6.1-16.642,0-24.964H312.758a12.49,12.49,0,0,0,0,24.963H453.2Z" transform="translate(-3.327 -203.087)" fill="#fff"/>
        <g id="Group_160" data-name="Group 160" transform="translate(297.301 154.464)">
          <path id="Path_293" data-name="Path 293" d="M451.854,359.56q.61-1,1.347-2.009H312.759c-13.43,0-17.2,19.249-3.651,24.365-9.249-4.5-5.8-19.85,3.912-22.356Z" transform="translate(-300.629 -357.551)" fill="#ecf0f1"/>
          <path id="Path_294" data-name="Path 294" d="M450.464,361.894H303.635a12.585,12.585,0,0,1,.861-.942H450.939c-.167.313-.326.628-.476.942Zm-148.056,1.778h0c-.174.306-.339.621-.487.942H449.414c.1-.314.2-.629.313-.942Zm-1.155,2.719h0c-.092.309-.171.625-.239.943H448.8c.047-.315.1-.628.162-.943Zm-.484,2.719h0c-.02.292-.029.585-.029.881v.064H448.617c0-.315.005-.628.019-.944H300.768Zm.1,2.722h0c.046.318.1.633.172.941h147.8c-.049-.313-.092-.626-.122-.941Zm.7,2.719h0c.122.32.258.635.406.942H449.47c-.1-.312-.185-.627-.267-.942Zm1.44,2.719h0q.342.491.723.943h146.8c-.148-.311-.289-.627-.421-.943Zm2.577,2.721h0a12.059,12.059,0,0,0,1.407.943H452.086c-.207-.31-.405-.626-.6-.943Z" transform="translate(-300.628 -357.508)" fill="#ecf0f1"/>
        </g>
        <path id="Path_295" data-name="Path 295" d="M465.222,386.884H302.315v6.051c7.714,10.829,6.439,22.874,0,31.9v6.052H465.222c25.45,0,25.45-44,0-44Z" transform="translate(-3.308 -202.719)" fill="#ff5b61"/>
        <path id="Path_296" data-name="Path 296" d="M302.315,424.759c6.576-10.634,7.074-21.266,0-31.9H465.222c7.663,0,13.948,7.19,13.948,15.951s-6.286,15.948-13.948,15.948Z" transform="translate(-3.308 -202.644)" fill="#fff"/>
        <g id="Group_161" data-name="Group 161" transform="translate(299.008 190.216)">
          <path id="Path_297" data-name="Path 297" d="M303.876,395.429q-.708-1.285-1.561-2.569H465.222c15.582,0,19.95,24.6,4.236,31.134,10.731-5.754,6.724-25.364-4.536-28.565Z" transform="translate(-302.315 -392.86)" fill="#ecf0f1"/>
          <path id="Path_298" data-name="Path 298" d="M305.473,398.41h170.32q-.474-.63-1-1.2H304.92c.194.4.38.8.553,1.2Zm171.74,2.271h0q.3.588.566,1.2H306.69c-.111-.4-.232-.8-.362-1.2Zm1.342,3.474h0c.1.4.2.8.275,1.2H307.4q-.079-.6-.188-1.2Zm.562,3.476h0c.022.371.035.746.035,1.126l0,.079H307.618q0-.6-.022-1.2H479.117ZM479,411.105h0q-.077.609-.2,1.2H307.36c.058-.4.105-.8.144-1.2Zm-.816,3.476h0c-.144.41-.3.81-.47,1.2H306.624c.113-.4.216-.8.31-1.2Zm-1.67,3.474h0q-.4.627-.842,1.2H305.384q.26-.6.488-1.2Zm-2.989,3.474h0a13.76,13.76,0,0,1-1.634,1.2h-168.3c.24-.4.469-.8.69-1.2Z" transform="translate(-302.299 -392.806)" fill="#ecf0f1"/>
        </g>
        <path id="Path_299" data-name="Path 299" d="M440.1,318.8H331.666v4.736a23.786,23.786,0,0,1,0,24.965v4.736H440.1c16.943,0,16.944-34.437,0-34.437Z" transform="translate(-2.939 -203.573)" fill="#fbb429"/>
        <path id="Path_300" data-name="Path 300" d="M331.666,348.444c4.378-8.321,4.708-16.644,0-24.965H440.105c5.1,0,9.283,5.628,9.283,12.485s-4.186,12.481-9.283,12.481Z" transform="translate(-2.939 -203.514)" fill="#fff"/>
        <g id="Group_162" data-name="Group 162" transform="translate(328.727 119.965)">
          <path id="Path_301" data-name="Path 301" d="M332.7,325.49q-.469-1.007-1.039-2.011H440.105c10.369,0,13.278,19.249,2.818,24.366,7.143-4.5,4.475-19.85-3.019-22.355Z" transform="translate(-331.666 -323.479)" fill="#ecf0f1"/>
          <path id="Path_302" data-name="Path 302" d="M333.768,327.824H447.141c-.21-.331-.432-.643-.664-.944H333.4C333.531,327.195,333.652,327.508,333.768,327.824ZM448.086,329.6h0c.136.308.26.621.376.944H334.579c-.074-.316-.153-.629-.241-.944Zm.893,2.721h0c.069.311.132.623.182.943H335.048c-.034-.315-.076-.628-.126-.943Zm.374,2.72h0c.014.29.025.585.025.881v.061H335.2c0-.313-.005-.628-.015-.942Zm-.077,2.72h0c-.036.318-.081.631-.134.942H335.024c.037-.313.071-.628.094-.942Zm-.546,2.718h0c-.094.322-.2.635-.312.944H334.533c.075-.313.145-.628.208-.944Zm-1.112,2.721h0c-.174.326-.362.642-.559.944H333.711c.114-.312.222-.627.325-.944Zm-1.988,2.721h0a9.437,9.437,0,0,1-1.087.941H332.517c.159-.311.312-.623.457-.941Z" transform="translate(-331.655 -323.436)" fill="#ecf0f1"/>
        </g>
        <g id="Page-1" transform="translate(90.106 72.903)">
          <g id="_017---Quill" data-name="017---Quill">
            <path id="Shape" d="M73.843,30.415a40.249,40.249,0,0,1-3.462,6.051v.026a46.2,46.2,0,0,1-4.889,5.787,43.55,43.55,0,0,0-3.937,4.492A49.522,49.522,0,0,0,57.8,52.507a72.174,72.174,0,0,0-4.6,10.253c-.9,2.378-1.691,4.677-2.51,6.871-2.4,6.421-4.994,11.812-10.623,14.93L31.14,89.845,21.2,84.56C16.527,81.046,10,73.409,10,58.135c0-.925.026-1.85.053-2.722a56.32,56.32,0,0,1,.819-7.32A43.052,43.052,0,0,1,20.6,27.086,41.532,41.532,0,0,1,26.119,21.8h.026a41.95,41.95,0,0,1,10.279-5.946c1.9-.766,3.858-1.4,5.84-1.982,1.876-.581,3.779-1.083,5.681-1.559C58.094,9.751,68.452,7.61,76.063,0a44.772,44.772,0,0,1-2.22,30.415Z" transform="translate(16.425 0)" fill="#f0c419"/>
            <path id="Shape-2" data-name="Shape" d="M17.687,74.066A2.643,2.643,0,0,1,15.045,71.6c-.111-1.678-2.378-41.411,30.238-63.156a2.643,2.643,0,1,1,2.933,4.4C18.131,32.9,20.3,70.866,20.33,71.249a2.643,2.643,0,0,1-2.468,2.817h-.174Z" transform="translate(24.593 13.137)" fill="#e57e25"/>
            <g id="Group_164" data-name="Group 164" transform="translate(26.478 12.314)">
              <path id="Shape-3" data-name="Shape" d="M20.22,29.484a2.619,2.619,0,0,1-3.567,1.083A26.122,26.122,0,0,1,10.02,25.52a56.32,56.32,0,0,1,.819-7.32,24.047,24.047,0,0,0,8.3,7.716,2.624,2.624,0,0,1,1.083,3.567Z" transform="translate(-10.02 17.58)" fill="#f29c1f"/>
              <path id="Shape-4" data-name="Shape" d="M20.669,25.691a2.748,2.748,0,0,1-1.4.4,2.679,2.679,0,0,1-2.246-1.242,22.48,22.48,0,0,1-3.012-11.31A41.532,41.532,0,0,1,19.533,8.25a22,22,0,0,0,1.982,13.794,2.643,2.643,0,0,1-.846,3.647Z" transform="translate(-3.466 1.237)" fill="#f29c1f"/>
              <path id="Shape-5" data-name="Shape" d="M28.237,4.66a37.651,37.651,0,0,0-.951,8.826,2.643,2.643,0,0,1-5.285,0,45.085,45.085,0,0,1,.555-7.267c1.876-.581,3.779-1.083,5.681-1.559Z" transform="translate(9.657 -4.66)" fill="#f29c1f"/>
              <path id="Shape-6" data-name="Shape" d="M42.635,11.51a40.25,40.25,0,0,1-3.462,6.051v.026a53.268,53.268,0,0,1-7.531.5,2.643,2.643,0,0,1,0-5.285A44,44,0,0,0,42.635,11.51Z" transform="translate(21.155 6.591)" fill="#f29c1f"/>
              <path id="Shape-7" data-name="Shape" d="M38.56,17.7a49.526,49.526,0,0,0-3.752,5.734c-2.537.238-5.259.344-8.165.344a2.643,2.643,0,0,1,0-5.285A79.625,79.625,0,0,0,38.56,17.7Z" transform="translate(12.942 16.758)" fill="#f29c1f"/>
              <path id="Shape-8" data-name="Shape" d="M35.137,23.75c-.9,2.378-1.691,4.677-2.51,6.871a26.882,26.882,0,0,1-8.985,1.718,2.643,2.643,0,1,1,0-5.285A26.076,26.076,0,0,0,35.137,23.75Z" transform="translate(8.015 26.696)" fill="#f29c1f"/>
            </g>
            <path id="Shape-9" data-name="Shape" d="M58.135,44.57V34H26.425V44.57a5.285,5.285,0,0,1-5.285,5.285H10.57A10.57,10.57,0,0,0,0,60.425V86.85A10.57,10.57,0,0,0,10.57,97.42H73.99A10.57,10.57,0,0,0,84.56,86.85V60.425a10.57,10.57,0,0,0-10.57-10.57H63.42A5.285,5.285,0,0,1,58.135,44.57Z" transform="translate(0 55.845)" fill="#3f5c6c"/>
            <rect id="Rectangle-path" width="58" height="11" rx="2" transform="translate(13.038 84.313)" fill="#547580"/>
            <path id="Rectangle-path-2" data-name="Rectangle-path" d="M0,44H84.56V70.425H0Z" transform="translate(0 72.271)" fill="#2fa8cc"/>
            <path id="Shape-10" data-name="Shape" d="M11.928,53.285H6.643a2.643,2.643,0,1,1,0-5.285h5.285a2.643,2.643,0,1,1,0,5.285Z" transform="translate(6.57 78.841)" fill="#ecf0f1"/>
            <path id="Shape-11" data-name="Shape" d="M54.923,53.285H12.643a2.643,2.643,0,1,1,0-5.285h42.28a2.643,2.643,0,1,1,0,5.285Z" transform="translate(16.425 78.841)" fill="#ecf0f1"/>
          </g>
        </g>
        <g id="ink_1_" data-name="ink (1)" transform="translate(322.991)">
          <path id="Path_304" data-name="Path 304" d="M108.666,61c0,1.126-1.037,2.51-2.923,3.894-6.57,4.818-22.347,8.644-41.265,9.425-17.026.7-37-1.055-55.489-6.879l1.156,51.049C4.531,118.489,0,129.784,0,135.4c0,2.3,1.76,4.8,3.382,6.425,12.665,12.192,37.968,13.865,54.36,13.865,2.288,0,4.513-.087,6.737-.171,21.715-.827,40.253-5.557,47.4-12.573a10.505,10.505,0,0,0,3.55-7.546V61Z" transform="translate(0 -47.248)" fill="#ecd5a4"/>
          <path id="Path_305" data-name="Path 305" d="M336.951,135.4V61h-6.763c0,1.126-1.037,2.51-2.923,3.894-6.57,4.818-22.347,8.644-41.265,9.425v81.2c21.715-.827,40.253-5.557,47.4-12.573A10.5,10.5,0,0,0,336.951,135.4Z" transform="translate(-221.522 -47.248)" fill="#e5bf98"/>
          <path id="Path_306" data-name="Path 306" d="M220.811,297.38c-.7-.849-1.39-1.694-2.054-2.55a3.3,3.3,0,0,1-.353-3.547,3.52,3.52,0,0,1,3.177-1.9l-6.9-3.382H194.659l-6.9,3.382a3.521,3.521,0,0,1,3.177,1.9,3.3,3.3,0,0,1-.353,3.544c-.664.859-1.357,1.7-2.054,2.553C185,301.683,181,306.561,181,313.054a30.865,30.865,0,0,0,10.505,23.062l.958.836h24.418l.958-.836a30.865,30.865,0,0,0,10.505-23.062C228.344,306.561,224.342,301.683,220.811,297.38Z" transform="translate(-140.194 -221.522)" fill="#575f64"/>
          <path id="Path_307" data-name="Path 307" d="M299.167,336.116a30.864,30.864,0,0,0,10.505-23.062c0-6.493-4-11.371-7.533-15.673-.7-.849-1.39-1.694-2.054-2.55a3.3,3.3,0,0,1-.353-3.547,3.52,3.52,0,0,1,3.177-1.9l-6.9-3.382H286v50.951h12.209Z" transform="translate(-221.522 -221.522)" fill="#474f54"/>
          <path id="Path_308" data-name="Path 308" d="M227.909,271H211v6.763h33.817V271Z" transform="translate(-163.43 -209.903)" fill="#474f54"/>
          <path id="Path_309" data-name="Path 309" d="M286,271h16.909v6.763H286Z" transform="translate(-221.522 -209.903)" fill="#32393f"/>
          <path id="Path_310" data-name="Path 310" d="M27.054,13.527V88.15H20.29A10.145,10.145,0,0,0,0,88.15V13.527a13.527,13.527,0,0,1,27.054,0Z" fill="#ebc59d"/>
          <ellipse id="Ellipse_14" data-name="Ellipse 14" cx="10.5" cy="9.5" rx="10.5" ry="9.5" transform="translate(54.154 82.216)" fill="#fff7e6"/>
          <path id="Path_311" data-name="Path 311" d="M296.145,371.145A10.156,10.156,0,0,0,286,361v20.29A10.156,10.156,0,0,0,296.145,371.145Z" transform="translate(-221.522 -279.613)" fill="#ffe6cc"/>
          <path id="Path_312" data-name="Path 312" d="M278.179,76.745a46.289,46.289,0,0,0-15.416,16.309A55.2,55.2,0,0,0,256,118.1l6.764-5.072c.566-.677,20.29-13.166,20.29-39.432Z" transform="translate(-198.285 -57.005)" fill="#fed843"/>
          <path id="Path_313" data-name="Path 313" d="M306.29,73.6l-4.874,3.147A46.289,46.289,0,0,0,286,93.054V113.03C286.565,112.354,306.29,99.864,306.29,73.6Z" transform="translate(-221.522 -57.005)" fill="#fabe2c"/>
        </g>
      </g>
    </g>
  </g>
</svg>
